<svg width="22" height="20" viewBox="0 0 22 20" fill="none" xmlns="http://www.w3.org/2000/svg">
<path d="M20.2193 0.0629832L6.5 4.96182V12.5451L7.31033 12.8344L6.08942 15.2762C5.95036 15.5538 5.87262 15.8581 5.86147 16.1684C5.85032 16.4787 5.90602 16.7877 6.0248 17.0746C6.14357 17.3614 6.32264 17.6194 6.54987 17.831C6.77709 18.0426 7.04716 18.2028 7.34175 18.3009L11.7661 19.7753C12.261 19.9367 12.7973 19.9159 13.2782 19.7166C13.7591 19.5174 14.153 19.1528 14.3888 18.6887L15.8004 15.8656L20.2193 17.444C20.3827 17.5023 20.5578 17.5205 20.7297 17.497C20.9016 17.4736 21.0653 17.4092 21.2072 17.3093C21.349 17.2094 21.4648 17.0769 21.5447 16.9229C21.6247 16.769 21.6665 16.5981 21.6667 16.4246V1.0824C21.6665 0.908908 21.6247 0.737988 21.5447 0.584022C21.4648 0.430056 21.349 0.297547 21.2072 0.197643C21.0653 0.0977382 20.9016 0.0333612 20.7297 0.00992768C20.5578 -0.0135058 20.3827 0.00468958 20.2193 0.0629832ZM12.4508 17.7202L8.0275 16.2458L9.36542 13.5689L13.7443 15.1332L12.4508 17.7202ZM2.16667 12.5451H4.33333V4.96182H2.16667C0.97175 4.96182 0 5.93357 0 7.12848V10.3785C0 11.5734 0.97175 12.5451 2.16667 12.5451Z" fill="#DC0000"/>
</svg>
