<svg width="24" height="20" viewBox="0 0 24 20" fill="none" xmlns="http://www.w3.org/2000/svg">
<path d="M0 1.8C0 0.80625 0.80625 0 1.8 0H13.8C14.7938 0 15.6 0.80625 15.6 1.8V3.6H17.5013C18.1388 3.6 18.75 3.85125 19.2 4.30125L22.0988 7.2C22.5488 7.65 22.8 8.26125 22.8 8.89875V9.6V10.8V13.2C23.4638 13.2 24 13.7363 24 14.4C24 15.0638 23.4638 15.6 22.8 15.6H21.6C21.6 17.5875 19.9875 19.2 18 19.2C16.0125 19.2 14.4 17.5875 14.4 15.6H9.6C9.6 17.5875 7.9875 19.2 6 19.2C4.0125 19.2 2.4 17.5875 2.4 15.6H1.8C0.80625 15.6 0 14.7938 0 13.8V1.8ZM15.6 9.6H20.4V8.89875L17.5013 6H15.6V9.6ZM6 17.4C6.47739 17.4 6.93523 17.2104 7.27279 16.8728C7.61036 16.5352 7.8 16.0774 7.8 15.6C7.8 15.1226 7.61036 14.6648 7.27279 14.3272C6.93523 13.9896 6.47739 13.8 6 13.8C5.52261 13.8 5.06477 13.9896 4.72721 14.3272C4.38964 14.6648 4.2 15.1226 4.2 15.6C4.2 16.0774 4.38964 16.5352 4.72721 16.8728C5.06477 17.2104 5.52261 17.4 6 17.4ZM19.8 15.6C19.8 15.1226 19.6104 14.6648 19.2728 14.3272C18.9352 13.9896 18.4774 13.8 18 13.8C17.5226 13.8 17.0648 13.9896 16.7272 14.3272C16.3896 14.6648 16.2 15.1226 16.2 15.6C16.2 16.0774 16.3896 16.5352 16.7272 16.8728C17.0648 17.2104 17.5226 17.4 18 17.4C18.4774 17.4 18.9352 17.2104 19.2728 16.8728C19.6104 16.5352 19.8 16.0774 19.8 15.6ZM9.6375 3.5625C9.285 3.21 8.715 3.21 8.36625 3.5625C8.0175 3.915 8.01375 4.485 8.36625 4.83375L9.82875 6.29625H3.6C3.10125 6.29625 2.7 6.6975 2.7 7.19625C2.7 7.695 3.10125 8.09625 3.6 8.09625H9.82875L8.36625 9.55875C8.01375 9.91125 8.01375 10.4812 8.36625 10.83C8.71875 11.1787 9.28875 11.1825 9.6375 10.83L12.6375 7.83C12.99 7.4775 12.99 6.9075 12.6375 6.55875L9.6375 3.5625Z" fill="#0A4984"/>
</svg>
