<svg width="14" height="15" viewBox="0 0 14 15" fill="none" xmlns="http://www.w3.org/2000/svg">
<path d="M0 2.27344C0 1.64453 0.492188 1.125 1.12109 1.125H12.8516C13.4805 1.125 14 1.64453 14 2.27344C14 2.54688 13.8906 2.79297 13.7266 2.98438L9.1875 8.58984V12.5C9.1875 12.9922 8.77734 13.375 8.28516 13.375C8.09375 13.375 7.90234 13.3203 7.73828 13.1836L5.22266 11.1875C4.94922 10.9688 4.8125 10.668 4.8125 10.3398V8.58984L0.246094 2.98438C0.0820312 2.79297 0 2.54688 0 2.27344ZM1.50391 2.4375L5.96094 7.93359C6.07031 8.07031 6.125 8.20703 6.125 8.34375V10.2305L7.875 11.625V8.34375C7.875 8.20703 7.90234 8.07031 8.01172 7.93359L12.4961 2.4375H1.50391Z" fill="#062D4E"/>
</svg>
