<svg width="21" height="19" viewBox="0 0 21 19" fill="none" xmlns="http://www.w3.org/2000/svg">
<path d="M17.8646 4.16667C17.6828 3.8518 17.4218 3.58998 17.1075 3.40724C16.7932 3.2245 16.4365 3.12719 16.0729 3.125H13.5417V1.04167C13.5417 0.765399 13.4319 0.500448 13.2366 0.305097C13.0412 0.109747 12.7763 0 12.5 0H2.08333C1.5308 0 1.00089 0.219493 0.610194 0.610194C0.219493 1.00089 0 1.5308 0 2.08333V12.5C0.000374731 12.8653 0.0968154 13.2242 0.279647 13.5405C0.462479 13.8568 0.725274 14.1194 1.04167 14.3021C1.00437 15.269 1.35272 16.2112 2.01007 16.9213C2.66742 17.6314 3.57994 18.0512 4.54688 18.0885C5.51381 18.1258 6.45596 17.7775 7.16606 17.1201C7.87616 16.4628 8.29604 15.5503 8.33333 14.5833H11.5625C11.6777 15.4549 12.1057 16.2549 12.7668 16.8344C13.4279 17.4139 14.2771 17.7334 15.1563 17.7334C16.0354 17.7334 16.8846 17.4139 17.5457 16.8344C18.2068 16.2549 18.6348 15.4549 18.75 14.5833C19.3025 14.5833 19.8324 14.3638 20.2231 13.9731C20.6138 13.5824 20.8333 13.0525 20.8333 12.5V9.375C20.8317 9.18496 20.7815 8.9985 20.6875 8.83333L17.8646 4.16667ZM13.5417 5.20833H16.0729L17.9479 8.33333H13.5417V5.20833ZM4.6875 15.625C4.37847 15.625 4.07637 15.5334 3.81942 15.3617C3.56247 15.19 3.3622 14.946 3.24394 14.6604C3.12568 14.3749 3.09473 14.0608 3.15502 13.7577C3.21531 13.4546 3.36413 13.1762 3.58265 12.9576C3.80117 12.7391 4.07958 12.5903 4.38267 12.53C4.68577 12.4697 4.99993 12.5007 5.28544 12.6189C5.57095 12.7372 5.81498 12.9375 5.98667 13.1944C6.15836 13.4514 6.25 13.7535 6.25 14.0625C6.25 14.4769 6.08538 14.8743 5.79235 15.1674C5.49933 15.4604 5.1019 15.625 4.6875 15.625ZM15.1042 15.625C14.7951 15.625 14.493 15.5334 14.2361 15.3617C13.9791 15.19 13.7789 14.946 13.6606 14.6604C13.5423 14.3749 13.5114 14.0608 13.5717 13.7577C13.632 13.4546 13.7808 13.1762 13.9993 12.9576C14.2178 12.7391 14.4962 12.5903 14.7993 12.53C15.1024 12.4697 15.4166 12.5007 15.7021 12.6189C15.9876 12.7372 16.2316 12.9375 16.4033 13.1944C16.575 13.4514 16.6667 13.7535 16.6667 14.0625C16.6667 14.4769 16.502 14.8743 16.209 15.1674C15.916 15.4604 15.5186 15.625 15.1042 15.625Z" fill="#062D4E"/>
</svg>
