<svg width="6" height="16" viewBox="0 0 6 16" fill="none" xmlns="http://www.w3.org/2000/svg">
<path d="M1.75 2.25C1.75 1.8125 1.96875 1.40625 2.375 1.1875C2.75 0.96875 3.21875 0.96875 3.625 1.1875C4 1.40625 4.25 1.8125 4.25 2.25C4.25 2.71875 4 3.125 3.625 3.34375C3.21875 3.5625 2.75 3.5625 2.375 3.34375C1.96875 3.125 1.75 2.71875 1.75 2.25ZM0.5 6.25C0.5 5.84375 0.8125 5.5 1.25 5.5H3C3.40625 5.5 3.75 5.84375 3.75 6.25V14.5H5.25C5.65625 14.5 6 14.8438 6 15.25C6 15.6875 5.65625 16 5.25 16H0.75C0.3125 16 0 15.6875 0 15.25C0 14.8438 0.3125 14.5 0.75 14.5H2.25V7H1.25C0.8125 7 0.5 6.6875 0.5 6.25Z" fill="#097411"/>
</svg>
