<?xml version="1.0" encoding="UTF-8"?>
<svg width="191px" height="63px" viewBox="0 0 191 63" version="1.1" xmlns="http://www.w3.org/2000/svg" xmlns:xlink="http://www.w3.org/1999/xlink">
    <!-- Generator: Sketch 43.1 (39012) - http://www.bohemiancoding.com/sketch -->
    <title>logo-sulog-rodape</title>
    <desc>Created with Sketch.</desc>
    <defs>
        <polygon id="path-1" points="0 31.4090963 0 0.314285714 57.3314796 0.314285714 57.3314796 62.5039069 0 62.5039069 0 31.4090963"></polygon>
        <polygon id="path-3" points="0 62.5428571 190.738967 62.5428571 190.738967 0.353130016 0 0.353130016"></polygon>
    </defs>
    <g id="Page-1" stroke="none" stroke-width="1" fill="none" fill-rule="evenodd">
        <g id="01-Início" transform="translate(-50.000000, -2409.000000)">
            <g id="Group-14" transform="translate(0.000000, 2352.000000)">
                <g id="logo-sulog-rodape" transform="translate(50.000000, 57.000000)">
                    <g id="Group-3" transform="translate(0.000000, 0.038844)">
                        <mask id="mask-2" fill="white">
                            <use xlink:href="#path-1"></use>
                        </mask>
                        <g id="Clip-2"></g>
                        <path d="M14.9775833,0.314179775 L57.3314796,0.314179775 L57.3314796,17.9622055 L27.4258315,17.9622055 L27.4258315,13.4068283 L52.7687019,13.4068283 L52.7687019,4.86955698 L14.9775833,4.86955698 C9.23485,4.86955698 4.56277778,9.53405136 4.56277778,15.2674703 C4.56277778,21.0008892 9.23485,25.6653836 14.9775833,25.6653836 L38.8822944,25.6653836 C49.0551667,25.6653836 57.3314796,33.9282729 57.3314796,44.0846453 C57.3314796,54.2410177 49.0551667,62.5039069 38.8822944,62.5039069 L0,62.5039069 L0,42.8963628 L36.4024778,42.8963628 L36.4024778,47.45174 L4.56277778,47.45174 L4.56277778,57.9485297 L38.8822944,57.9485297 C46.5392722,57.9485297 52.7687019,51.7292039 52.7687019,44.0846453 C52.7687019,36.4400867 46.5392722,30.2207608 38.8822944,30.2207608 L14.9775833,30.2207608 C6.71895556,30.2207608 0,23.512703 0,15.2674703 C0,7.02223756 6.71895556,0.314179775 14.9775833,0.314179775" id="Fill-1" fill="#F5B000" mask="url(#mask-2)"></path>
                    </g>
                    <path d="M91.3318494,18.8435474 C90.0500272,17.498122 87.8153272,16.9076886 86.0075476,16.9076886 C83.7399531,16.9076886 81.8992791,17.8590209 81.8992791,19.4343339 C81.8992791,21.5340449 83.9040717,21.9277849 86.8620957,22.1905136 C91.3976383,22.5842536 95.7029198,24.3234189 95.7029198,29.6390851 C95.7029198,34.7577047 90.9703643,36.9891332 86.0075476,37.0219743 C82.0308569,37.0544623 77.8896939,35.5123435 75.9503365,32.2967416 L79.0070439,29.1139807 C80.7815754,31.3778973 83.706705,32.3624238 86.040442,32.3624238 C88.768205,32.3624238 90.6417735,31.2797271 90.6417735,29.6390851 C90.6743143,27.7028732 89.1296902,26.81687 86.0075476,26.5544944 C81.1434143,26.0950722 76.8048846,24.8810112 76.8706735,19.4668218 C76.903568,14.9061477 81.2417439,12.4780257 85.9746531,12.4780257 C89.5240698,12.4780257 92.1863976,13.2655056 94.5526754,16.0216854 L91.3318494,18.8435474 Z" id="Fill-4" fill="#005491"></path>
                    <path d="M119.751942,12.6383114 L119.751942,26.1607191 C119.751942,32.9860161 115.93937,36.628199 109.892098,36.8248925 C103.87772,37.021939 98.7833254,33.5764494 98.7833254,26.1607191 L98.7833254,12.6383114 L103.87772,12.6383114 L103.87772,26.1607191 C103.87772,30.2623242 106.178209,32.3952295 109.924992,32.2310241 C113.408974,32.0014896 114.657548,29.6062087 114.657548,26.1607191 L114.657548,12.6383114 L119.751942,12.6383114 Z" id="Fill-6" fill="#005491"></path>
                    <polygon id="Fill-8" fill="#005491" points="128.526376 12.585801 128.526376 32.2675024 140.029528 32.2675024 140.029528 36.9598941 123.399087 36.9598941 123.399087 12.585801"></polygon>
                    <path d="M153.640365,17.3341637 C149.269294,17.3341637 146.245481,20.6154478 146.245481,24.7827352 C146.245481,29.0810337 149.269294,32.1984655 153.640365,32.1984655 C158.110472,32.1984655 161.035602,29.0481926 161.035602,24.7827352 C161.035602,20.5826067 158.110472,17.3341637 153.640365,17.3341637 M153.640365,36.8248218 C146.278376,36.8248218 141.217229,32.2641477 141.217229,24.7827352 C141.217229,17.3013226 146.278376,12.7402953 153.640365,12.7402953 C161.002354,12.7402953 166.063854,17.3013226 166.063854,24.7827352 C166.063854,32.2641477 161.002354,36.8248218 153.640365,36.8248218" id="Fill-10" fill="#005491"></path>
                    <path d="M186.79517,19.3357047 C185.382124,17.9902793 183.245754,17.3013226 181.40508,17.3013226 C177.034009,17.3013226 174.174669,19.7951268 174.174669,24.8155762 C174.174669,28.0968604 175.982448,32.1984655 181.40508,32.1984655 C183.015493,32.1984655 184.527576,31.9357368 186.302461,30.5903114 L186.302461,26.9152873 L180.813687,26.9152873 L180.813687,22.6498299 L190.738967,22.6498299 L190.738967,32.6575345 C188.767069,35.4797496 185.612031,36.9233451 181.372185,36.9233451 C172.498467,36.9233451 169.146417,30.7873579 169.146417,24.8155762 C169.146417,18.3511782 172.958635,12.608931 181.40508,12.608931 C184.527576,12.608931 187.354022,13.4620931 189.983456,16.1529438 L186.79517,19.3357047 Z" id="Fill-12" fill="#005491"></path>
                    <path d="M77.711215,47.6560963 L79.1468983,47.6560963 C80.372128,47.6560963 80.3647002,45.8611364 79.1468983,45.8611364 L77.711215,45.8611364 L77.711215,47.6560963 Z M79.1468983,48.5318587 L77.711215,48.5318587 L77.711215,50.0231268 L76.7540928,50.0231268 L76.7540928,44.9560642 C77.5516946,44.9560642 78.3492965,44.9490016 79.1468983,44.9490016 C81.6263613,44.9490016 81.6337891,48.5318587 79.1468983,48.5318587 L79.1468983,48.5318587 Z" id="Fill-14" fill="#005491"></path>
                    <path d="M88.3030493,43.4070947 L87.2589159,43.4070947 L86.7223474,44.3916212 L86.7223474,44.4350562 L87.5054474,44.4350562 L88.3030493,43.4434671 L88.3030493,43.4070947 Z M88.0639456,48.177175 L87.1213252,46.0202568 L86.1787048,48.177175 L88.0639456,48.177175 Z M88.4480678,49.0677689 L85.7942289,49.0677689 L85.359527,50.0229856 L84.3224678,50.0229856 L86.5992585,44.9562761 L87.6433919,44.9562761 L89.9198289,50.0229856 L88.8760493,50.0229856 L88.4480678,49.0677689 Z" id="Fill-16" fill="#005491"></path>
                    <polygon id="Fill-18" fill="#005491" points="94.0225796 45.824764 92.4132278 45.824764 92.4132278 44.9560642 96.5894074 44.9560642 96.5894074 45.824764 94.9797019 45.824764 94.9797019 50.0231268 94.0225796 50.0231268"></polygon>
                    <mask id="mask-4" fill="white">
                        <use xlink:href="#path-3"></use>
                    </mask>
                    <g id="Clip-21"></g>
                    <polygon id="Fill-20" fill="#005491" mask="url(#mask-4)" points="100.365902 50.0233387 101.315596 50.0233387 101.315596 44.9562761 100.365902 44.9562761"></polygon>
                    <path d="M106.274239,47.5402697 C106.296169,48.3725971 106.745373,49.263191 107.941599,49.263191 C109.138178,49.263191 109.587736,48.3655345 109.602237,47.5332071 C109.616386,46.6789856 109.138178,45.7234157 107.941599,45.7234157 C106.745373,45.7234157 106.25231,46.6860482 106.274239,47.5402697 M110.544504,47.5183756 C110.530002,48.8288411 109.725326,50.1389535 107.941599,50.1389535 C106.158224,50.1389535 105.331619,48.8577978 105.331619,47.5257913 C105.331619,46.1937849 106.187228,44.8547159 107.941599,44.8547159 C109.689249,44.8547159 110.559006,46.1937849 110.544504,47.5183756" id="Fill-22" fill="#005491" mask="url(#mask-4)"></path>
                    <path d="M119.975695,49.1038234 L121.019828,49.1038234 C122.172549,49.1038234 122.62918,48.2640803 122.607251,47.4388154 C122.585675,46.649923 122.121615,45.8610305 121.019828,45.8610305 L119.975695,45.8610305 L119.975695,49.1038234 Z M123.557299,47.4462311 C123.578875,48.7273868 122.796128,50.0230209 121.019828,50.0230209 L119.026001,50.0230209 L119.026001,44.9559583 L121.019828,44.9559583 C122.759697,44.9559583 123.535369,46.1940321 123.557299,47.4462311 L123.557299,47.4462311 Z" id="Fill-23" fill="#005491" mask="url(#mask-4)"></path>
                    <polygon id="Fill-24" fill="#005491" mask="url(#mask-4)" points="131.161928 50.0230915 127.362797 50.0230915 127.362797 44.9560289 131.161928 44.9560289 131.161928 45.8826421 128.312491 45.8826421 128.312491 47.0479711 131.060415 47.0479711 131.060415 47.938565 128.312491 47.938565 128.312491 49.082 131.161928 49.082"></polygon>
                    <polygon id="Fill-25" fill="#005491" mask="url(#mask-4)" points="141.057037 45.824764 139.447685 45.824764 139.447685 44.9560642 143.623865 44.9560642 143.623865 45.824764 142.014159 45.824764 142.014159 50.0231268 141.057037 50.0231268"></polygon>
                    <path d="M148.357481,45.8464109 L148.357481,47.4679839 L149.814741,47.4679839 C150.423819,47.4679839 150.684498,47.0625907 150.684498,46.6571974 C150.684498,46.2518042 150.416744,45.8464109 149.814741,45.8464109 L148.357481,45.8464109 Z M151.89558,50.0232327 L150.757361,50.0232327 L149.278172,48.3292681 L148.357481,48.3292681 L148.357481,50.0232327 L147.400359,50.0232327 L147.400359,44.9487544 C148.205035,44.9487544 149.009711,44.9561701 149.814741,44.9561701 C151.010967,44.9632327 151.641974,45.7595409 151.641974,46.6353034 C151.641974,47.3302632 151.322933,48.0322857 150.358383,48.2279197 L151.89558,49.9579037 L151.89558,50.0232327 Z" id="Fill-26" fill="#005491" mask="url(#mask-4)"></path>
                    <polygon id="Fill-27" fill="#005491" mask="url(#mask-4)" points="155.483196 50.0233387 156.432891 50.0233387 156.432891 44.9562761 155.483196 44.9562761"></polygon>
                    <path d="M162.798355,46.0201862 L161.855734,48.1774575 L163.740975,48.1774575 L162.798355,46.0201862 Z M164.125097,49.0676982 L161.471259,49.0676982 L161.036557,50.0232681 L159.999497,50.0232681 L162.275934,44.9562055 L163.320421,44.9562055 L165.596859,50.0232681 L164.553079,50.0232681 L164.125097,49.0676982 Z" id="Fill-28" fill="#005491" mask="url(#mask-4)"></path>
                    <path d="M172.759359,46.1938909 C172.418388,45.868305 171.911177,45.6871493 171.468694,45.6871493 C170.381055,45.6871493 169.721397,46.5124141 169.721397,47.5548539 C169.721397,48.3871814 170.207033,49.2484655 171.468694,49.2484655 C171.867671,49.2484655 172.215362,49.1615955 172.61434,48.8430722 L172.61434,47.9457689 L171.316247,47.9457689 L171.316247,47.0915474 L173.491525,47.0915474 L173.491525,49.2269246 C172.991388,49.7986421 172.360381,50.1390594 171.468694,50.1390594 C169.561877,50.1390594 168.785851,48.8868604 168.785851,47.5548539 C168.785851,46.1289149 169.677892,44.8113868 171.468694,44.8113868 C172.150281,44.8113868 172.831868,45.0719968 173.353581,45.585801 L172.759359,46.1938909 Z" id="Fill-29" fill="#005491" mask="url(#mask-4)"></path>
                    <polygon id="Fill-30" fill="#005491" mask="url(#mask-4)" points="181.248566 50.0230915 177.449434 50.0230915 177.449434 44.9560289 181.248566 44.9560289 181.248566 45.8826421 178.399129 45.8826421 178.399129 47.0479711 181.147053 47.0479711 181.147053 47.938565 178.399129 47.938565 178.399129 49.082 181.248566 49.082"></polygon>
                    <polygon id="Fill-31" fill="#005491" mask="url(#mask-4)" points="189.599793 46.3531878 187.946582 48.5535409 187.758058 48.5535409 186.141632 46.3457721 186.141632 50.0303307 185.18451 50.0303307 185.18451 44.9632681 186.286297 44.9632681 187.874426 47.1420803 189.462202 44.9632681 190.556915 44.9632681 190.556915 50.0303307 189.599793 50.0303307"></polygon>
                </g>
            </g>
        </g>
    </g>
</svg>