<svg width="256" height="54" viewBox="0 0 256 54" fill="none" xmlns="http://www.w3.org/2000/svg">
<g clip-path="url(#clip0_136_525)">
<mask id="mask0_136_525" style="mask-type:luminance" maskUnits="userSpaceOnUse" x="63" y="5" width="40" height="44">
<path d="M63 26.8258V5.38477H102.021V48.2669H63V26.8258Z" fill="white"/>
</mask>
<g mask="url(#mask0_136_525)">
<path fill-rule="evenodd" clip-rule="evenodd" d="M73.1942 5.38477H102.021V17.5538H81.6668V14.4127H98.9159V8.52588H73.1942C69.2855 8.52588 66.1056 11.7422 66.1056 15.6956C66.1056 19.6491 69.2855 22.8654 73.1942 22.8654H89.4644C96.3883 22.8654 102.021 28.563 102.021 35.5662C102.021 42.5694 96.3883 48.267 89.4644 48.267H63V34.7468H87.7766V37.8879H66.1056V45.1259H89.4644C94.6759 45.1259 98.9159 40.8374 98.9159 35.5662C98.9159 30.295 94.6759 26.0065 89.4644 26.0065H73.1942C67.5731 26.0065 63 21.381 63 15.6956C63 10.0102 67.5731 5.38477 73.1942 5.38477Z" fill="#F5B000"/>
</g>
<path fill-rule="evenodd" clip-rule="evenodd" d="M125.163 18.1346C124.291 17.2069 122.77 16.7998 121.54 16.7998C119.996 16.7998 118.743 17.4558 118.743 18.542C118.743 19.9898 120.108 20.2613 122.121 20.4425C125.208 20.714 128.139 21.9132 128.139 25.5786C128.139 29.1081 124.917 30.6467 121.54 30.6694C118.833 30.6918 116.014 29.6284 114.694 27.4111L116.775 25.2165C117.983 26.7776 119.974 27.4564 121.562 27.4564C123.419 27.4564 124.694 26.7099 124.694 25.5786C124.716 24.2435 123.665 23.6326 121.54 23.4516C118.229 23.1348 115.276 22.2977 115.321 18.5644C115.343 15.4196 118.296 13.7454 121.517 13.7454C123.933 13.7454 125.745 14.2884 127.356 16.1889L125.163 18.1346Z" fill="white"/>
<path fill-rule="evenodd" clip-rule="evenodd" d="M144.506 13.856V23.1802C144.506 27.8865 141.911 30.3979 137.795 30.5335C133.702 30.6694 130.234 28.2936 130.234 23.1802V13.856H133.702V23.1802C133.702 26.0084 135.268 27.4791 137.818 27.3659C140.189 27.2076 141.039 25.556 141.039 23.1802V13.856H144.506Z" fill="white"/>
<path fill-rule="evenodd" clip-rule="evenodd" d="M150.479 13.8198V27.3911H158.308V30.6267H146.989V13.8198H150.479Z" fill="white"/>
<path fill-rule="evenodd" clip-rule="evenodd" d="M167.572 17.0939C164.597 17.0939 162.539 19.3565 162.539 22.23C162.539 25.1938 164.597 27.3434 167.572 27.3434C170.614 27.3434 172.605 25.1712 172.605 22.23C172.605 19.3338 170.614 17.0939 167.572 17.0939ZM167.572 30.5335C162.561 30.5335 159.116 27.3887 159.116 22.23C159.116 17.0713 162.561 13.9263 167.572 13.9263C172.583 13.9263 176.028 17.0713 176.028 22.23C176.028 27.3887 172.583 30.5335 167.572 30.5335Z" fill="white"/>
<path fill-rule="evenodd" clip-rule="evenodd" d="M190.138 18.4741C189.176 17.5463 187.722 17.0713 186.47 17.0713C183.494 17.0713 181.548 18.7909 181.548 22.2527C181.548 24.5152 182.779 27.3434 186.47 27.3434C187.566 27.3434 188.595 27.1623 189.803 26.2346V23.7005H186.067V20.7593H192.822V27.66C191.48 29.606 189.333 30.6014 186.447 30.6014C180.407 30.6014 178.126 26.3704 178.126 22.2527C178.126 17.7952 180.721 13.8357 186.47 13.8357C188.595 13.8357 190.519 14.424 192.308 16.2794L190.138 18.4741Z" fill="white"/>
<path fill-rule="evenodd" clip-rule="evenodd" d="M115.893 38.0021H116.87C117.704 38.0021 117.699 36.7644 116.87 36.7644H115.893V38.0021ZM116.87 38.606H115.893V39.6343H115.241V36.1404C115.784 36.1404 116.327 36.1355 116.87 36.1355C118.557 36.1355 118.562 38.606 116.87 38.606Z" fill="white"/>
<path fill-rule="evenodd" clip-rule="evenodd" d="M123.102 35.0723H122.391L122.026 35.7511V35.7811H122.559L123.102 35.0973V35.0723ZM122.939 38.3614L122.298 36.8741L121.656 38.3614H122.939ZM123.201 38.9755H121.394L121.098 39.6342H120.393L121.942 36.1405H122.653L124.202 39.6342H123.492L123.201 38.9755Z" fill="white"/>
<path fill-rule="evenodd" clip-rule="evenodd" d="M126.995 36.7394H125.899V36.1404H128.742V36.7394H127.646V39.6343H126.995V36.7394Z" fill="white"/>
<mask id="mask1_136_525" style="mask-type:luminance" maskUnits="userSpaceOnUse" x="63" y="5" width="130" height="44">
<path d="M63 48.267H192.822V5.38477H63V48.267Z" fill="white"/>
</mask>
<g mask="url(#mask1_136_525)">
<path fill-rule="evenodd" clip-rule="evenodd" d="M131.312 39.6343H131.958V36.1404H131.312V39.6343Z" fill="white"/>
</g>
<mask id="mask2_136_525" style="mask-type:luminance" maskUnits="userSpaceOnUse" x="63" y="5" width="130" height="44">
<path d="M63 48.267H192.822V5.38477H63V48.267Z" fill="white"/>
</mask>
<g mask="url(#mask2_136_525)">
<path fill-rule="evenodd" clip-rule="evenodd" d="M135.333 37.9221C135.348 38.496 135.654 39.1101 136.468 39.1101C137.282 39.1101 137.588 38.4912 137.598 37.9172C137.608 37.3282 137.282 36.6693 136.468 36.6693C135.654 36.6693 135.318 37.3331 135.333 37.9221ZM138.239 37.907C138.23 38.8106 137.682 39.714 136.468 39.714C135.254 39.714 134.691 38.8306 134.691 37.9121C134.691 36.9937 135.274 36.0703 136.468 36.0703C137.657 36.0703 138.249 36.9937 138.239 37.907Z" fill="white"/>
</g>
<mask id="mask3_136_525" style="mask-type:luminance" maskUnits="userSpaceOnUse" x="63" y="5" width="130" height="44">
<path d="M63 48.267H192.822V5.38477H63V48.267Z" fill="white"/>
</mask>
<g mask="url(#mask3_136_525)">
<path fill-rule="evenodd" clip-rule="evenodd" d="M144.659 39.0002H145.37C146.154 39.0002 146.465 38.4212 146.45 37.8522C146.436 37.3082 146.12 36.7642 145.37 36.7642H144.659V39.0002ZM147.097 37.8573C147.112 38.7407 146.579 39.6341 145.37 39.6341H144.013V36.1401H145.37C146.554 36.1401 147.082 36.9938 147.097 37.8573Z" fill="white"/>
</g>
<mask id="mask4_136_525" style="mask-type:luminance" maskUnits="userSpaceOnUse" x="63" y="5" width="130" height="44">
<path d="M63 48.267H192.822V5.38477H63V48.267Z" fill="white"/>
</mask>
<g mask="url(#mask4_136_525)">
<path fill-rule="evenodd" clip-rule="evenodd" d="M152.272 39.6343H149.687V36.1404H152.272V36.7793H150.333V37.5829H152.203V38.197H150.333V38.9854H152.272V39.6343Z" fill="white"/>
</g>
<mask id="mask5_136_525" style="mask-type:luminance" maskUnits="userSpaceOnUse" x="63" y="5" width="130" height="44">
<path d="M63 48.267H192.822V5.38477H63V48.267Z" fill="white"/>
</mask>
<g mask="url(#mask5_136_525)">
<path fill-rule="evenodd" clip-rule="evenodd" d="M159.007 36.7394H157.912V36.1404H160.755V36.7394H159.659V39.6343H159.007V36.7394Z" fill="white"/>
</g>
<mask id="mask6_136_525" style="mask-type:luminance" maskUnits="userSpaceOnUse" x="63" y="5" width="130" height="44">
<path d="M63 48.267H192.822V5.38477H63V48.267Z" fill="white"/>
</mask>
<g mask="url(#mask6_136_525)">
<path fill-rule="evenodd" clip-rule="evenodd" d="M163.977 36.7542V37.8724H164.968C165.383 37.8724 165.56 37.5928 165.56 37.3133C165.56 37.0338 165.378 36.7542 164.968 36.7542H163.977ZM166.385 39.6343H165.61L164.603 38.4663H163.977V39.6343H163.325V36.1353C163.873 36.1353 164.421 36.1404 164.968 36.1404C165.783 36.1452 166.212 36.6943 166.212 37.2982C166.212 37.7774 165.995 38.2615 165.339 38.3964L166.385 39.5893V39.6343Z" fill="white"/>
</g>
<mask id="mask7_136_525" style="mask-type:luminance" maskUnits="userSpaceOnUse" x="63" y="5" width="130" height="44">
<path d="M63 48.267H192.822V5.38477H63V48.267Z" fill="white"/>
</mask>
<g mask="url(#mask7_136_525)">
<path fill-rule="evenodd" clip-rule="evenodd" d="M168.826 39.6343H169.473V36.1404H168.826V39.6343Z" fill="white"/>
</g>
<mask id="mask8_136_525" style="mask-type:luminance" maskUnits="userSpaceOnUse" x="63" y="5" width="130" height="44">
<path d="M63 48.267H192.822V5.38477H63V48.267Z" fill="white"/>
</mask>
<g mask="url(#mask8_136_525)">
<path fill-rule="evenodd" clip-rule="evenodd" d="M173.805 36.874L173.164 38.3616H174.447L173.805 36.874ZM174.708 38.9754H172.902L172.606 39.6343H171.9L173.45 36.1404H174.161L175.71 39.6343H175L174.708 38.9754Z" fill="white"/>
</g>
<mask id="mask9_136_525" style="mask-type:luminance" maskUnits="userSpaceOnUse" x="63" y="5" width="130" height="44">
<path d="M63 48.267H192.822V5.38477H63V48.267Z" fill="white"/>
</mask>
<g mask="url(#mask9_136_525)">
<path fill-rule="evenodd" clip-rule="evenodd" d="M180.585 36.9938C180.353 36.7693 180.008 36.6444 179.707 36.6444C178.967 36.6444 178.518 37.2135 178.518 37.9323C178.518 38.5062 178.848 39.1001 179.707 39.1001C179.978 39.1001 180.215 39.0402 180.487 38.8205V38.2018H179.603V37.6128H181.084V39.0852C180.743 39.4794 180.314 39.7142 179.707 39.7142C178.409 39.7142 177.881 38.8507 177.881 37.9323C177.881 36.949 178.488 36.0405 179.707 36.0405C180.171 36.0405 180.635 36.2202 180.99 36.5745L180.585 36.9938Z" fill="white"/>
</g>
<mask id="mask10_136_525" style="mask-type:luminance" maskUnits="userSpaceOnUse" x="63" y="5" width="130" height="44">
<path d="M63 48.267H192.822V5.38477H63V48.267Z" fill="white"/>
</mask>
<g mask="url(#mask10_136_525)">
<path fill-rule="evenodd" clip-rule="evenodd" d="M186.363 39.6343H183.777V36.1404H186.363V36.7793H184.424V37.5829H186.294V38.197H184.424V38.9854H186.363V39.6343Z" fill="white"/>
</g>
<mask id="mask11_136_525" style="mask-type:luminance" maskUnits="userSpaceOnUse" x="63" y="5" width="130" height="44">
<path d="M63 48.267H192.822V5.38477H63V48.267Z" fill="white"/>
</mask>
<g mask="url(#mask11_136_525)">
<path fill-rule="evenodd" clip-rule="evenodd" d="M192.047 37.1037L190.922 38.6209H190.794L189.693 37.0986V39.6392H189.042V36.1453H189.792L190.873 37.6476L191.954 36.1453H192.699V39.6392H192.047V37.1037Z" fill="white"/>
</g>
</g>
<defs>
<clipPath id="clip0_136_525">
<rect width="130" height="43.2208" fill="white" transform="translate(63 5.14136)"/>
</clipPath>
</defs>
</svg>
