<svg width="16" height="15" viewBox="0 0 16 15" fill="none" xmlns="http://www.w3.org/2000/svg">
<path d="M0.75 0.75H6.25C6.65625 0.75 7 1.09375 7 1.5C7 1.9375 6.65625 2.25 6.25 2.25H0.75C0.3125 2.25 0 1.9375 0 1.5C0 1.09375 0.3125 0.75 0.75 0.75ZM0.75 4.75H6.25C6.65625 4.75 7 5.09375 7 5.5C7 5.9375 6.65625 6.25 6.25 6.25H0.75C0.3125 6.25 0 5.9375 0 5.5C0 5.09375 0.3125 4.75 0.75 4.75ZM0 9.5C0 9.09375 0.3125 8.75 0.75 8.75H6.25C6.65625 8.75 7 9.09375 7 9.5C7 9.9375 6.65625 10.25 6.25 10.25H0.75C0.3125 10.25 0 9.9375 0 9.5ZM0.75 12.75H6.25C6.65625 12.75 7 13.0938 7 13.5C7 13.9375 6.65625 14.25 6.25 14.25H0.75C0.3125 14.25 0 13.9375 0 13.5C0 13.0938 0.3125 12.75 0.75 12.75ZM9 5.5C9 5.09375 9.3125 4.75 9.75 4.75H15.25C15.6562 4.75 16 5.09375 16 5.5C16 5.9375 15.6562 6.25 15.25 6.25H9.75C9.3125 6.25 9 5.9375 9 5.5ZM9.75 0.75H15.25C15.6562 0.75 16 1.09375 16 1.5C16 1.9375 15.6562 2.25 15.25 2.25H9.75C9.3125 2.25 9 1.9375 9 1.5C9 1.09375 9.3125 0.75 9.75 0.75ZM9 9.5C9 9.09375 9.3125 8.75 9.75 8.75H15.25C15.6562 8.75 16 9.09375 16 9.5C16 9.9375 15.6562 10.25 15.25 10.25H9.75C9.3125 10.25 9 9.9375 9 9.5ZM9.75 12.75H15.25C15.6562 12.75 16 13.0938 16 13.5C16 13.9375 15.6562 14.25 15.25 14.25H9.75C9.3125 14.25 9 13.9375 9 13.5C9 13.0938 9.3125 12.75 9.75 12.75Z" fill="#062D4E"/>
</svg>
