<svg width="13" height="15" viewBox="0 0 13 15" fill="none" xmlns="http://www.w3.org/2000/svg">
<path d="M6.78125 2.21875V6.59375H11.1562C11.5117 6.59375 11.8125 6.89453 11.8125 7.25C11.8125 7.63281 11.5117 7.90625 11.1562 7.90625H6.78125V12.2812C6.78125 12.6641 6.48047 12.9375 6.125 12.9375C5.74219 12.9375 5.46875 12.6641 5.46875 12.2812V7.90625H1.09375C0.710938 7.90625 0.4375 7.63281 0.4375 7.25C0.4375 6.89453 0.710938 6.59375 1.09375 6.59375H5.46875V2.21875C5.46875 1.86328 5.74219 1.5625 6.125 1.5625C6.48047 1.5625 6.78125 1.86328 6.78125 2.21875Z" fill="white"/>
</svg>
