<svg width="24" height="24" viewBox="0 0 24 24" fill="none" xmlns="http://www.w3.org/2000/svg">
<path d="M12 24C11.4861 24.0007 10.9829 23.9032 10.5511 23.7193L7.68616 22.4841C7.56647 22.4355 7.43062 22.4071 7.29045 22.4012C7.15028 22.3953 7.01006 22.4121 6.882 22.4502L3.62876 23.4531C3.22204 23.5785 2.77421 23.6346 2.32621 23.6162C1.87822 23.5978 1.44435 23.5056 1.06427 23.3479C0.743363 23.2184 0.477416 23.0373 0.291292 22.8215C0.105169 22.6057 0.00494779 22.3622 0 22.1139V1.88702C0.00573029 1.6382 0.106857 1.3944 0.293932 1.17839C0.481007 0.962378 0.747928 0.781209 1.06976 0.651803C1.45003 0.494416 1.88386 0.402341 2.33176 0.383958C2.77966 0.365575 3.22741 0.421468 3.63425 0.546549L6.88567 1.54948C7.01339 1.58805 7.15348 1.60535 7.29367 1.59986C7.43386 1.59438 7.56988 1.56628 7.68982 1.51803L10.5529 0.280391C10.985 0.0973166 11.4876 0 12.0009 0C12.5143 0 13.0168 0.0973166 13.4489 0.280391L16.3138 1.51682C16.434 1.56528 16.5703 1.59349 16.7109 1.59898C16.8514 1.60446 16.9919 1.58705 17.1198 1.54827L20.3712 0.54534C20.7777 0.419387 21.2257 0.363012 21.6739 0.381405C22.122 0.399799 22.556 0.49237 22.9357 0.650593C23.2565 0.780436 23.5224 0.961796 23.7085 1.17778C23.8946 1.39376 23.9948 1.63733 24 1.88581V22.1139C23.9947 22.3622 23.8943 22.6055 23.7083 22.8213C23.5222 23.0371 23.2564 23.2182 22.9357 23.3479C22.556 23.5062 22.1221 23.5988 21.6739 23.6172C21.2257 23.6356 20.7777 23.5792 20.3712 23.4531L17.129 22.4514C17.0004 22.4131 16.8597 22.3961 16.719 22.4018C16.5782 22.4075 16.4417 22.4357 16.3212 22.4841L13.4563 23.7193C13.0226 23.9045 12.5164 24.002 12 24ZM7.23737 21.1944C7.75119 21.1937 8.25415 21.2921 8.68447 21.4775L11.5494 22.7115C11.6835 22.7661 11.8379 22.795 11.9954 22.795C12.1529 22.795 12.3074 22.7661 12.4415 22.7115L15.3082 21.4763C15.6889 21.3145 16.1255 21.2191 16.5772 21.199C17.0289 21.1789 17.4809 21.2348 17.891 21.3614L21.1406 22.3631C21.2673 22.4022 21.4067 22.4201 21.5464 22.415C21.686 22.4099 21.8216 22.3821 21.9411 22.3341C22.0015 22.3133 22.0529 22.2827 22.0907 22.2453C22.1285 22.2079 22.1514 22.1647 22.1572 22.1199V1.88702C22.1517 1.84214 22.129 1.79892 22.0912 1.76146C22.0533 1.72399 22.0017 1.6935 21.9411 1.67288C21.8219 1.62443 21.6863 1.59629 21.5466 1.59101C21.4069 1.58573 21.2674 1.60347 21.1406 1.64264L17.8892 2.64557C17.4795 2.77238 17.0277 2.82837 16.5762 2.80826C16.1248 2.78816 15.6884 2.69263 15.3082 2.53064L12.4451 1.29421C12.311 1.24025 12.157 1.2117 12 1.2117C11.843 1.2117 11.689 1.24025 11.5549 1.29421L8.68814 2.52943C8.3079 2.69164 7.87178 2.78778 7.42025 2.80893C6.96872 2.83008 6.51642 2.77555 6.10533 2.65041L2.85392 1.64264C2.72714 1.60347 2.58762 1.58573 2.44789 1.59101C2.30816 1.59629 2.17261 1.62443 2.05343 1.67288C1.99282 1.6935 1.94116 1.72399 1.90334 1.76146C1.86552 1.79892 1.84278 1.84214 1.83728 1.88702V22.1139C1.84312 22.1587 1.86599 22.2018 1.90377 22.2392C1.94156 22.2767 1.99303 22.3072 2.05343 22.328C2.17317 22.3756 2.3087 22.4031 2.44822 22.4081C2.58773 22.4132 2.72701 22.3957 2.85392 22.357L6.10716 21.3541C6.46179 21.2471 6.84752 21.1926 7.23737 21.1944Z" fill="#07275A"/>
<path d="M17.581 6.43491H6.42175C6.17884 6.43491 5.94588 6.37118 5.77412 6.25774C5.60235 6.14429 5.50586 5.99043 5.50586 5.83C5.50586 5.66957 5.60235 5.51571 5.77412 5.40227C5.94588 5.28883 6.17884 5.2251 6.42175 5.2251H17.581C17.8239 5.2251 18.0568 5.28883 18.2286 5.40227C18.4004 5.51571 18.4969 5.66957 18.4969 5.83C18.4969 5.99043 18.4004 6.14429 18.2286 6.25774C18.0568 6.37118 17.8239 6.43491 17.581 6.43491Z" fill="#07275A"/>
<path d="M17.581 10.733H6.42175C6.17884 10.733 5.94588 10.6693 5.77412 10.5558C5.60235 10.4424 5.50586 10.2885 5.50586 10.1281C5.50586 9.96767 5.60235 9.81381 5.77412 9.70037C5.94588 9.58692 6.17884 9.52319 6.42175 9.52319H17.581C17.8239 9.52319 18.0568 9.58692 18.2286 9.70037C18.4004 9.81381 18.4969 9.96767 18.4969 10.1281C18.4969 10.2885 18.4004 10.4424 18.2286 10.5558C18.0568 10.6693 17.8239 10.733 17.581 10.733Z" fill="#07275A"/>
<path d="M12.0014 15.0245H6.42175C6.17884 15.0245 5.94588 14.9608 5.77412 14.8473C5.60235 14.7339 5.50586 14.58 5.50586 14.4196C5.50586 14.2592 5.60235 14.1053 5.77412 13.9919C5.94588 13.8784 6.17884 13.8147 6.42175 13.8147H12.0014C12.2443 13.8147 12.4772 13.8784 12.649 13.9919C12.8208 14.1053 12.9172 14.2592 12.9172 14.4196C12.9172 14.58 12.8208 14.7339 12.649 14.8473C12.4772 14.9608 12.2443 15.0245 12.0014 15.0245Z" fill="#07275A"/>
</svg>
